# This file uses centimeters as units for non-parametric coordinates.

mtllib Diagoanl object.mtl
g default
v -5.000000 -5.000000 0.000000
v -4.000000 -5.000000 0.000000
v -5.000000 -4.000000 0.000000
v -4.000000 -4.000000 0.000000
v -3.000000 -4.000000 0.000000
v -4.000000 -3.000000 0.000000
v -3.000000 -3.000000 0.000000
v -2.000000 -3.000000 0.000000
v -3.000000 -2.000000 0.000000
v -2.000000 -2.000000 0.000000
v -1.000000 -2.000000 0.000000
v -2.000000 -1.000000 0.000000
v -1.000000 -1.000000 0.000000
v 0.000000 -1.000000 0.000000
v -1.000000 0.000000 0.000000
v 0.000000 0.000000 0.000000
v 1.000000 0.000000 0.000000
v 0.000000 1.000000 0.000000
v 1.000000 1.000000 0.000000
v 2.000000 1.000000 0.000000
v 1.000000 2.000000 0.000000
v 2.000000 2.000000 0.000000
v 3.000000 2.000000 0.000000
v 2.000000 3.000000 0.000000
v 3.000000 3.000000 0.000000
v 4.000000 3.000000 0.000000
v 3.000000 4.000000 0.000000
v 4.000000 4.000000 0.000000
v 5.000000 4.000000 0.000000
v 4.000000 5.000000 0.000000
vt 0.375000 0.000000
vt 0.400000 0.000000
vt 0.375000 0.025000
vt 0.400000 0.025000
vt 0.425000 0.025000
vt 0.400000 0.050000
vt 0.425000 0.050000
vt 0.450000 0.050000
vt 0.425000 0.075000
vt 0.450000 0.075000
vt 0.475000 0.075000
vt 0.450000 0.100000
vt 0.475000 0.100000
vt 0.500000 0.100000
vt 0.475000 0.125000
vt 0.500000 0.125000
vt 0.525000 0.125000
vt 0.500000 0.150000
vt 0.525000 0.150000
vt 0.550000 0.150000
vt 0.525000 0.175000
vt 0.550000 0.175000
vt 0.575000 0.175000
vt 0.550000 0.200000
vt 0.575000 0.200000
vt 0.600000 0.200000
vt 0.575000 0.225000
vt 0.600000 0.225000
vt 0.625000 0.225000
vt 0.600000 0.250000
vn 0.000000 0.000000 1.000000
vn 0.000000 0.000000 1.000000
vn 0.000000 0.000000 1.000000
vn 0.000000 0.000000 1.000000
vn 0.000000 0.000000 1.000000
vn 0.000000 0.000000 1.000000
vn 0.000000 0.000000 1.000000
vn 0.000000 0.000000 1.000000
vn 0.000000 0.000000 1.000000
vn 0.000000 0.000000 1.000000
vn 0.000000 0.000000 1.000000
vn 0.000000 0.000000 1.000000
vn 0.000000 0.000000 1.000000
vn 0.000000 0.000000 1.000000
vn 0.000000 0.000000 1.000000
vn 0.000000 0.000000 1.000000
vn 0.000000 0.000000 1.000000
vn 0.000000 0.000000 1.000000
vn 0.000000 0.000000 1.000000
vn 0.000000 0.000000 1.000000
vn 0.000000 0.000000 1.000000
vn 0.000000 0.000000 1.000000
vn 0.000000 0.000000 1.000000
vn 0.000000 0.000000 1.000000
vn 0.000000 0.000000 1.000000
vn 0.000000 0.000000 1.000000
vn 0.000000 0.000000 1.000000
vn 0.000000 0.000000 1.000000
vn 0.000000 0.000000 1.000000
vn 0.000000 0.000000 1.000000
s off
g pCube1
usemtl initialShadingGroup
f 1/1/1 2/2/2 3/3/3
f 4/4/4 5/5/5 6/6/6
f 7/7/7 8/8/8 9/9/9
f 10/10/10 11/11/11 12/12/12
f 13/13/13 14/14/14 15/15/15
f 16/16/16 17/17/17 18/18/18
f 19/19/19 20/20/20 21/21/21
f 22/22/22 23/23/23 24/24/24
f 25/25/25 26/26/26 27/27/27
f 28/28/28 29/29/29 30/30/30
