# This file uses centimeters as units for non-parametric coordinates.

mtllib ExampleObject.mtl
g default
v -1.500000 -2.500000 0.000000
v -0.500000 -2.500000 0.000000
v 0.500000 -2.500000 0.000000
v 1.500000 -2.500000 0.000000
v 2.500000 -2.500000 0.000000
v -2.500000 -1.500000 0.000000
v -1.500000 -1.500000 0.000000
v -0.500000 -1.500000 0.000000
v 0.500000 -1.500000 0.000000
v 1.500000 -1.500000 0.000000
v 2.500000 -1.500000 0.000000
v -2.500000 -0.500000 0.000000
v -1.500000 -0.500000 0.000000
v -0.500000 -0.500000 0.000000
v 0.500000 -0.500000 0.000000
v 1.500000 -0.500000 0.000000
v 2.500000 -0.500000 0.000000
v -2.500000 0.500000 0.000000
v -1.500000 0.500000 0.000000
v -0.500000 0.500000 0.000000
v 0.500000 0.500000 0.000000
v 1.500000 0.500000 0.000000
v 2.500000 0.500000 0.000000
v -2.500000 1.500000 0.000000
v -1.500000 1.500000 0.000000
v -0.500000 1.500000 0.000000
v 0.500000 1.500000 0.000000
v 1.500000 1.500000 0.000000
v 2.500000 1.500000 0.000000
v -2.500000 2.500000 0.000000
v -1.500000 2.500000 0.000000
v -0.500000 2.500000 0.000000
v 0.500000 2.500000 0.000000
v 1.500000 2.500000 0.000000
vt 0.425000 0.000000
vt 0.475000 0.000000
vt 0.525000 0.000000
vt 0.575000 0.000000
vt 0.625000 0.000000
vt 0.375000 0.050000
vt 0.425000 0.050000
vt 0.475000 0.050000
vt 0.525000 0.050000
vt 0.575000 0.050000
vt 0.625000 0.050000
vt 0.375000 0.100000
vt 0.425000 0.100000
vt 0.475000 0.100000
vt 0.525000 0.100000
vt 0.575000 0.100000
vt 0.625000 0.100000
vt 0.375000 0.150000
vt 0.425000 0.150000
vt 0.475000 0.150000
vt 0.525000 0.150000
vt 0.575000 0.150000
vt 0.625000 0.150000
vt 0.375000 0.200000
vt 0.425000 0.200000
vt 0.475000 0.200000
vt 0.525000 0.200000
vt 0.575000 0.200000
vt 0.625000 0.200000
vt 0.375000 0.250000
vt 0.425000 0.250000
vt 0.475000 0.250000
vt 0.525000 0.250000
vt 0.575000 0.250000
vn 0.000000 0.000000 1.000000
vn 0.000000 0.000000 1.000000
vn 0.000000 0.000000 1.000000
vn 0.000000 0.000000 1.000000
vn 0.000000 0.000000 1.000000
vn 0.000000 0.000000 1.000000
vn 0.000000 0.000000 1.000000
vn 0.000000 0.000000 1.000000
vn 0.000000 0.000000 1.000000
vn 0.000000 0.000000 1.000000
vn 0.000000 0.000000 1.000000
vn 0.000000 0.000000 1.000000
vn 0.000000 0.000000 1.000000
vn 0.000000 0.000000 1.000000
vn 0.000000 0.000000 1.000000
vn 0.000000 0.000000 1.000000
vn 0.000000 0.000000 1.000000
vn 0.000000 0.000000 1.000000
vn 0.000000 0.000000 1.000000
vn 0.000000 0.000000 1.000000
vn 0.000000 0.000000 1.000000
vn 0.000000 0.000000 1.000000
vn 0.000000 0.000000 1.000000
vn 0.000000 0.000000 1.000000
vn 0.000000 0.000000 1.000000
vn 0.000000 0.000000 1.000000
vn 0.000000 0.000000 1.000000
vn 0.000000 0.000000 1.000000
vn 0.000000 0.000000 1.000000
vn 0.000000 0.000000 1.000000
vn 0.000000 0.000000 1.000000
vn 0.000000 0.000000 1.000000
vn 0.000000 0.000000 1.000000
vn 0.000000 0.000000 1.000000
vn 0.000000 0.000000 1.000000
vn 0.000000 0.000000 1.000000
vn 0.000000 0.000000 1.000000
vn 0.000000 0.000000 1.000000
vn 0.000000 0.000000 1.000000
vn 0.000000 0.000000 1.000000
vn 0.000000 0.000000 1.000000
vn 0.000000 0.000000 1.000000
vn 0.000000 0.000000 1.000000
vn 0.000000 0.000000 1.000000
vn 0.000000 0.000000 1.000000
vn 0.000000 0.000000 1.000000
vn 0.000000 0.000000 1.000000
vn 0.000000 0.000000 1.000000
vn 0.000000 0.000000 1.000000
vn 0.000000 0.000000 1.000000
vn 0.000000 0.000000 1.000000
vn 0.000000 0.000000 1.000000
vn 0.000000 0.000000 1.000000
vn 0.000000 0.000000 1.000000
vn 0.000000 0.000000 1.000000
vn 0.000000 0.000000 1.000000
vn 0.000000 0.000000 1.000000
vn 0.000000 0.000000 1.000000
vn 0.000000 0.000000 1.000000
vn 0.000000 0.000000 1.000000
vn 0.000000 0.000000 1.000000
vn 0.000000 0.000000 1.000000
vn 0.000000 0.000000 1.000000
vn 0.000000 0.000000 1.000000
vn 0.000000 0.000000 1.000000
s 1
g pCube1
usemtl initialShadingGroup
f 6/6/1 1/1/2 7/7/3
s 2
f 7/7/4 2/2/5 8/8/6
s 3
f 8/8/7 3/3/8 9/9/9
s 4
f 9/9/10 4/4/11 10/10/12
s 5
f 10/10/13 5/5/14 11/11/15
s 1
f 6/6/1 7/7/3 12/12/16
s 2
f 7/7/4 8/8/6 13/13/17
s 3
f 8/8/7 9/9/9 14/14/18
s 4
f 9/9/10 10/10/12 15/15/19
s 5
f 10/10/13 11/11/15 16/16/20
s off
f 12/12/21 13/13/22 18/18/23
f 13/13/24 14/14/25 19/19/26
f 14/14/27 15/15/28 20/20/29
f 15/15/30 16/16/31 21/21/32
f 16/16/33 17/17/34 22/22/35
f 18/18/36 19/19/37 24/24/38
f 19/19/39 20/20/40 25/25/41
f 20/20/42 21/21/43 26/26/44
f 21/21/45 22/22/46 27/27/47
f 22/22/48 23/23/49 28/28/50
f 24/24/51 25/25/52 30/30/53
f 25/25/54 26/26/55 31/31/56
f 26/26/57 27/27/58 32/32/59
f 27/27/60 28/28/61 33/33/62
f 28/28/63 29/29/64 34/34/65
